<svg width="235" height="168" viewBox="0 0 235 168" fill="none" xmlns="http://www.w3.org/2000/svg">
<mask id="mask0_34065_11044" style="mask-type:luminance" maskUnits="userSpaceOnUse" x="0" y="5" width="211" height="154">
<path d="M0.512868 64.6005C0.217695 77.4096 5.03655 89.9236 11.2832 101.161C23.097 122.406 40.773 140.899 62.959 150.832C103.336 168.906 166.743 153.804 175.667 104.895C177.644 94.0628 177.239 81.5558 185.222 73.9705C189.636 69.7764 195.793 68.0465 200.997 64.8682C213.174 57.4272 211.431 38.0625 205.781 26.8665C198.567 12.5816 181.975 3.64404 166.077 5.46999C140.884 8.36679 131.13 40.1699 104.448 34.8636C96.7596 33.3329 89.5931 29.9487 82.2001 27.3402C66.9609 21.9653 50.0743 19.9334 34.6156 24.6356C16.6444 30.0997 1.72101 43.2932 0.581513 62.9325C0.54719 63.4885 0.526597 64.0377 0.512868 64.5937V64.6005Z" fill="white"/>
</mask>
<g mask="url(#mask0_34065_11044)">
<g opacity="0.63">
<path d="M29.0552 25.5142H-21.1172V27.0106H29.0552V25.5142Z" fill="#D6ECFF"/>
<path d="M29.0552 15.547H-21.1172V17.0435H29.0552V15.547Z" fill="#D6ECFF"/>
<path d="M29.0552 5.58667H-21.1172V7.08312H29.0552V5.58667Z" fill="#D6ECFF"/>
<path d="M29.0552 20.5306H-21.1172V22.0271H29.0552V20.5306Z" fill="#D6ECFF"/>
<path d="M29.0552 10.5634H-21.1172V12.0598H29.0552V10.5634Z" fill="#D6ECFF"/>
<path d="M29.0552 75.3435H-21.1172V76.84H29.0552V75.3435Z" fill="#D6ECFF"/>
<path d="M29.0552 65.3762H-21.1172V66.8727H29.0552V65.3762Z" fill="#D6ECFF"/>
<path d="M29.0552 55.4089H-21.1172V56.9054H29.0552V55.4089Z" fill="#D6ECFF"/>
<path d="M29.0552 45.4486H-21.1172V46.9451H29.0552V45.4486Z" fill="#D6ECFF"/>
<path d="M29.0552 35.4814H-21.1172V36.9779H29.0552V35.4814Z" fill="#D6ECFF"/>
<path d="M29.0552 70.3599H-21.1172V71.8563H29.0552V70.3599Z" fill="#D6ECFF"/>
<path d="M29.0552 60.3926H-21.1172V61.889H29.0552V60.3926Z" fill="#D6ECFF"/>
<path d="M29.0552 50.4323H-21.1172V51.9287H29.0552V50.4323Z" fill="#D6ECFF"/>
<path d="M29.0552 40.465H-21.1172V41.9614H29.0552V40.465Z" fill="#D6ECFF"/>
<path d="M29.0552 30.4978H-21.1172V31.9943H29.0552V30.4978Z" fill="#D6ECFF"/>
<path d="M29.0552 125.173H-21.1172V126.669H29.0552V125.173Z" fill="#D6ECFF"/>
<path d="M29.0552 115.205H-21.1172V116.702H29.0552V115.205Z" fill="#D6ECFF"/>
<path d="M29.0552 105.238H-21.1172V106.735H29.0552V105.238Z" fill="#D6ECFF"/>
<path d="M29.0552 95.2778H-21.1172V96.7743H29.0552V95.2778Z" fill="#D6ECFF"/>
<path d="M29.0552 85.3105H-21.1172V86.807H29.0552V85.3105Z" fill="#D6ECFF"/>
<path d="M29.0552 120.189H-21.1172V121.685H29.0552V120.189Z" fill="#D6ECFF"/>
<path d="M29.0552 110.222H-21.1172V111.718H29.0552V110.222Z" fill="#D6ECFF"/>
<path d="M29.0552 100.255H-21.1172V101.751H29.0552V100.255Z" fill="#D6ECFF"/>
<path d="M29.0552 90.2942H-21.1172V91.7906H29.0552V90.2942Z" fill="#D6ECFF"/>
<path d="M29.0552 80.327H-21.1172V81.8235H29.0552V80.327Z" fill="#D6ECFF"/>
<path d="M29.0552 155.067H-21.1172V156.564H29.0552V155.067Z" fill="#D6ECFF"/>
<path d="M29.0552 145.107H-21.1172V146.604H29.0552V145.107Z" fill="#D6ECFF"/>
<path d="M29.0552 135.14H-21.1172V136.636H29.0552V135.14Z" fill="#D6ECFF"/>
<path d="M29.0552 150.084H-21.1172V151.58H29.0552V150.084Z" fill="#D6ECFF"/>
<path d="M29.0552 140.123H-21.1172V141.62H29.0552V140.123Z" fill="#D6ECFF"/>
<path d="M29.0552 130.156H-21.1172V131.653H29.0552V130.156Z" fill="#D6ECFF"/>
<mask id="mask1_34065_11044" style="mask-type:luminance" maskUnits="userSpaceOnUse" x="-21" y="-22" width="50" height="51">
<path d="M28.8839 -21.075H-20.9453V28.7542H28.8839V-21.075Z" fill="white"/>
</mask>
<g mask="url(#mask1_34065_11044)">
<path d="M29.0552 25.5142H-21.1172V27.0106H29.0552V25.5142Z" fill="#D6ECFF"/>
<path d="M29.0552 15.547H-21.1172V17.0435H29.0552V15.547Z" fill="#D6ECFF"/>
<path d="M29.0552 5.58655H-21.1172V7.083H29.0552V5.58655Z" fill="#D6ECFF"/>
<path d="M29.0552 20.5305H-21.1172V22.027H29.0552V20.5305Z" fill="#D6ECFF"/>
<path d="M29.0552 10.5634H-21.1172V12.0598H29.0552V10.5634Z" fill="#D6ECFF"/>
<path d="M78.8833 25.5142H28.7109V27.0106H78.8833V25.5142Z" fill="#D6ECFF"/>
<path d="M78.8833 15.547H28.7109V17.0435H78.8833V15.547Z" fill="#D6ECFF"/>
<path d="M78.8833 5.58655H28.7109V7.083H78.8833V5.58655Z" fill="#D6ECFF"/>
<path d="M78.8833 20.5305H28.7109V22.027H78.8833V20.5305Z" fill="#D6ECFF"/>
<path d="M78.8833 10.5634H28.7109V12.0598H78.8833V10.5634Z" fill="#D6ECFF"/>
</g>
<mask id="mask2_34065_11044" style="mask-type:luminance" maskUnits="userSpaceOnUse" x="-21" y="28" width="50" height="51">
<path d="M28.8839 28.7542H-20.9453V78.5833H28.8839V28.7542Z" fill="white"/>
</mask>
<g mask="url(#mask2_34065_11044)">
<path d="M29.0552 75.3435H-21.1172V76.84H29.0552V75.3435Z" fill="#D6ECFF"/>
<path d="M29.0552 65.3762H-21.1172V66.8727H29.0552V65.3762Z" fill="#D6ECFF"/>
<path d="M29.0552 55.4089H-21.1172V56.9054H29.0552V55.4089Z" fill="#D6ECFF"/>
<path d="M29.0552 45.4486H-21.1172V46.9451H29.0552V45.4486Z" fill="#D6ECFF"/>
<path d="M29.0552 35.4814H-21.1172V36.9779H29.0552V35.4814Z" fill="#D6ECFF"/>
<path d="M29.0552 70.3599H-21.1172V71.8563H29.0552V70.3599Z" fill="#D6ECFF"/>
<path d="M29.0552 60.3926H-21.1172V61.889H29.0552V60.3926Z" fill="#D6ECFF"/>
<path d="M29.0552 50.4323H-21.1172V51.9287H29.0552V50.4323Z" fill="#D6ECFF"/>
<path d="M29.0552 40.4651H-21.1172V41.9615H29.0552V40.4651Z" fill="#D6ECFF"/>
<path d="M29.0552 30.4978H-21.1172V31.9943H29.0552V30.4978Z" fill="#D6ECFF"/>
<path d="M78.8833 75.3435H28.7109V76.84H78.8833V75.3435Z" fill="#D6ECFF"/>
<path d="M78.8833 65.3762H28.7109V66.8727H78.8833V65.3762Z" fill="#D6ECFF"/>
<path d="M78.8833 55.4089H28.7109V56.9054H78.8833V55.4089Z" fill="#D6ECFF"/>
<path d="M78.8833 45.4486H28.7109V46.9451H78.8833V45.4486Z" fill="#D6ECFF"/>
<path d="M78.8833 35.4814H28.7109V36.9779H78.8833V35.4814Z" fill="#D6ECFF"/>
<path d="M78.8833 70.3599H28.7109V71.8563H78.8833V70.3599Z" fill="#D6ECFF"/>
<path d="M78.8833 60.3926H28.7109V61.889H78.8833V60.3926Z" fill="#D6ECFF"/>
<path d="M78.8833 50.4323H28.7109V51.9287H78.8833V50.4323Z" fill="#D6ECFF"/>
<path d="M78.8833 40.4651H28.7109V41.9615H78.8833V40.4651Z" fill="#D6ECFF"/>
<path d="M78.8833 30.4978H28.7109V31.9943H78.8833V30.4978Z" fill="#D6ECFF"/>
</g>
<mask id="mask3_34065_11044" style="mask-type:luminance" maskUnits="userSpaceOnUse" x="-21" y="78" width="50" height="51">
<path d="M28.8839 78.5835H-20.9453V128.413H28.8839V78.5835Z" fill="white"/>
</mask>
<g mask="url(#mask3_34065_11044)">
<path d="M29.0552 125.173H-21.1172V126.669H29.0552V125.173Z" fill="#D6ECFF"/>
<path d="M29.0552 115.205H-21.1172V116.702H29.0552V115.205Z" fill="#D6ECFF"/>
<path d="M29.0552 105.238H-21.1172V106.735H29.0552V105.238Z" fill="#D6ECFF"/>
<path d="M29.0552 95.2778H-21.1172V96.7743H29.0552V95.2778Z" fill="#D6ECFF"/>
<path d="M29.0552 85.3105H-21.1172V86.807H29.0552V85.3105Z" fill="#D6ECFF"/>
<path d="M29.0552 120.189H-21.1172V121.685H29.0552V120.189Z" fill="#D6ECFF"/>
<path d="M29.0552 110.222H-21.1172V111.718H29.0552V110.222Z" fill="#D6ECFF"/>
<path d="M29.0552 100.255H-21.1172V101.751H29.0552V100.255Z" fill="#D6ECFF"/>
<path d="M29.0552 90.2942H-21.1172V91.7906H29.0552V90.2942Z" fill="#D6ECFF"/>
<path d="M29.0552 80.327H-21.1172V81.8235H29.0552V80.327Z" fill="#D6ECFF"/>
<path d="M78.8833 125.173H28.7109V126.669H78.8833V125.173Z" fill="#D6ECFF"/>
<path d="M78.8833 115.205H28.7109V116.702H78.8833V115.205Z" fill="#D6ECFF"/>
<path d="M78.8833 105.238H28.7109V106.735H78.8833V105.238Z" fill="#D6ECFF"/>
<path d="M78.8833 95.2778H28.7109V96.7743H78.8833V95.2778Z" fill="#D6ECFF"/>
<path d="M78.8833 85.3105H28.7109V86.807H78.8833V85.3105Z" fill="#D6ECFF"/>
<path d="M78.8833 120.189H28.7109V121.685H78.8833V120.189Z" fill="#D6ECFF"/>
<path d="M78.8833 110.222H28.7109V111.718H78.8833V110.222Z" fill="#D6ECFF"/>
<path d="M78.8833 100.255H28.7109V101.751H78.8833V100.255Z" fill="#D6ECFF"/>
<path d="M78.8833 90.2942H28.7109V91.7906H78.8833V90.2942Z" fill="#D6ECFF"/>
<path d="M78.8833 80.327H28.7109V81.8235H78.8833V80.327Z" fill="#D6ECFF"/>
</g>
<mask id="mask4_34065_11044" style="mask-type:luminance" maskUnits="userSpaceOnUse" x="-21" y="128" width="50" height="51">
<path d="M28.8839 128.413H-20.9453V178.242H28.8839V128.413Z" fill="white"/>
</mask>
<g mask="url(#mask4_34065_11044)">
<path d="M29.0552 155.067H-21.1172V156.564H29.0552V155.067Z" fill="#D6ECFF"/>
<path d="M29.0552 145.107H-21.1172V146.603H29.0552V145.107Z" fill="#D6ECFF"/>
<path d="M29.0552 135.14H-21.1172V136.636H29.0552V135.14Z" fill="#D6ECFF"/>
<path d="M29.0552 150.084H-21.1172V151.58H29.0552V150.084Z" fill="#D6ECFF"/>
<path d="M29.0552 140.123H-21.1172V141.62H29.0552V140.123Z" fill="#D6ECFF"/>
<path d="M29.0552 130.156H-21.1172V131.653H29.0552V130.156Z" fill="#D6ECFF"/>
<path d="M78.8833 155.067H28.7109V156.564H78.8833V155.067Z" fill="#D6ECFF"/>
<path d="M78.8833 145.107H28.7109V146.603H78.8833V145.107Z" fill="#D6ECFF"/>
<path d="M78.8833 135.14H28.7109V136.636H78.8833V135.14Z" fill="#D6ECFF"/>
<path d="M78.8833 150.084H28.7109V151.58H78.8833V150.084Z" fill="#D6ECFF"/>
<path d="M78.8833 140.123H28.7109V141.62H78.8833V140.123Z" fill="#D6ECFF"/>
<path d="M78.8833 130.156H28.7109V131.653H78.8833V130.156Z" fill="#D6ECFF"/>
</g>
<mask id="mask5_34065_11044" style="mask-type:luminance" maskUnits="userSpaceOnUse" x="28" y="-22" width="51" height="51">
<path d="M78.712 -21.075H28.8828V28.7542H78.712V-21.075Z" fill="white"/>
</mask>
<g mask="url(#mask5_34065_11044)">
<path d="M29.0533 25.5142H-21.1191V27.0106H29.0533V25.5142Z" fill="#D6ECFF"/>
<path d="M29.0533 15.547H-21.1191V17.0435H29.0533V15.547Z" fill="#D6ECFF"/>
<path d="M29.0533 5.58655H-21.1191V7.083H29.0533V5.58655Z" fill="#D6ECFF"/>
<path d="M29.0533 20.5305H-21.1191V22.027H29.0533V20.5305Z" fill="#D6ECFF"/>
<path d="M29.0533 10.5634H-21.1191V12.0598H29.0533V10.5634Z" fill="#D6ECFF"/>
<path d="M78.8814 25.5142H28.709V27.0106H78.8814V25.5142Z" fill="#D6ECFF"/>
<path d="M78.8814 15.547H28.709V17.0435H78.8814V15.547Z" fill="#D6ECFF"/>
<path d="M78.8814 5.58655H28.709V7.083H78.8814V5.58655Z" fill="#D6ECFF"/>
<path d="M78.8814 20.5305H28.709V22.027H78.8814V20.5305Z" fill="#D6ECFF"/>
<path d="M78.8814 10.5634H28.709V12.0598H78.8814V10.5634Z" fill="#D6ECFF"/>
<path d="M128.711 25.5142H78.5391V27.0106H128.711V25.5142Z" fill="#D6ECFF"/>
<path d="M128.711 15.547H78.5391V17.0435H128.711V15.547Z" fill="#D6ECFF"/>
<path d="M128.711 5.58655H78.5391V7.083H128.711V5.58655Z" fill="#D6ECFF"/>
<path d="M128.711 20.5305H78.5391V22.027H128.711V20.5305Z" fill="#D6ECFF"/>
<path d="M128.711 10.5634H78.5391V12.0598H128.711V10.5634Z" fill="#D6ECFF"/>
</g>
<mask id="mask6_34065_11044" style="mask-type:luminance" maskUnits="userSpaceOnUse" x="28" y="28" width="51" height="51">
<path d="M78.712 28.7542H28.8828V78.5833H78.712V28.7542Z" fill="white"/>
</mask>
<g mask="url(#mask6_34065_11044)">
<path d="M29.0533 75.3435H-21.1191V76.84H29.0533V75.3435Z" fill="#D6ECFF"/>
<path d="M29.0533 65.3762H-21.1191V66.8727H29.0533V65.3762Z" fill="#D6ECFF"/>
<path d="M29.0533 55.4089H-21.1191V56.9054H29.0533V55.4089Z" fill="#D6ECFF"/>
<path d="M29.0533 45.4486H-21.1191V46.9451H29.0533V45.4486Z" fill="#D6ECFF"/>
<path d="M29.0533 35.4814H-21.1191V36.9779H29.0533V35.4814Z" fill="#D6ECFF"/>
<path d="M29.0533 70.3599H-21.1191V71.8563H29.0533V70.3599Z" fill="#D6ECFF"/>
<path d="M29.0533 60.3926H-21.1191V61.889H29.0533V60.3926Z" fill="#D6ECFF"/>
<path d="M29.0533 50.4323H-21.1191V51.9287H29.0533V50.4323Z" fill="#D6ECFF"/>
<path d="M29.0533 40.4651H-21.1191V41.9615H29.0533V40.4651Z" fill="#D6ECFF"/>
<path d="M29.0533 30.4978H-21.1191V31.9943H29.0533V30.4978Z" fill="#D6ECFF"/>
<path d="M78.8814 75.3435H28.709V76.84H78.8814V75.3435Z" fill="#D6ECFF"/>
<path d="M78.8814 65.3762H28.709V66.8727H78.8814V65.3762Z" fill="#D6ECFF"/>
<path d="M78.8814 55.4089H28.709V56.9054H78.8814V55.4089Z" fill="#D6ECFF"/>
<path d="M78.8814 45.4486H28.709V46.9451H78.8814V45.4486Z" fill="#D6ECFF"/>
<path d="M78.8814 35.4814H28.709V36.9779H78.8814V35.4814Z" fill="#D6ECFF"/>
<path d="M78.8814 70.3599H28.709V71.8563H78.8814V70.3599Z" fill="#D6ECFF"/>
<path d="M78.8814 60.3926H28.709V61.889H78.8814V60.3926Z" fill="#D6ECFF"/>
<path d="M78.8814 50.4323H28.709V51.9287H78.8814V50.4323Z" fill="#D6ECFF"/>
<path d="M78.8814 40.4651H28.709V41.9615H78.8814V40.4651Z" fill="#D6ECFF"/>
<path d="M78.8814 30.4978H28.709V31.9943H78.8814V30.4978Z" fill="#D6ECFF"/>
<path d="M128.711 75.3435H78.5391V76.84H128.711V75.3435Z" fill="#D6ECFF"/>
<path d="M128.711 65.3762H78.5391V66.8727H128.711V65.3762Z" fill="#D6ECFF"/>
<path d="M128.711 55.4089H78.5391V56.9054H128.711V55.4089Z" fill="#D6ECFF"/>
<path d="M128.711 45.4486H78.5391V46.9451H128.711V45.4486Z" fill="#D6ECFF"/>
<path d="M128.711 35.4814H78.5391V36.9779H128.711V35.4814Z" fill="#D6ECFF"/>
<path d="M128.711 70.3599H78.5391V71.8563H128.711V70.3599Z" fill="#D6ECFF"/>
<path d="M128.711 60.3926H78.5391V61.889H128.711V60.3926Z" fill="#D6ECFF"/>
<path d="M128.711 50.4323H78.5391V51.9287H128.711V50.4323Z" fill="#D6ECFF"/>
<path d="M128.711 40.4651H78.5391V41.9615H128.711V40.4651Z" fill="#D6ECFF"/>
<path d="M128.711 30.4978H78.5391V31.9943H128.711V30.4978Z" fill="#D6ECFF"/>
</g>
<mask id="mask7_34065_11044" style="mask-type:luminance" maskUnits="userSpaceOnUse" x="28" y="78" width="51" height="51">
<path d="M78.712 78.5835H28.8828V128.413H78.712V78.5835Z" fill="white"/>
</mask>
<g mask="url(#mask7_34065_11044)">
<path d="M29.0533 125.173H-21.1191V126.669H29.0533V125.173Z" fill="#D6ECFF"/>
<path d="M29.0533 115.205H-21.1191V116.702H29.0533V115.205Z" fill="#D6ECFF"/>
<path d="M29.0533 105.238H-21.1191V106.735H29.0533V105.238Z" fill="#D6ECFF"/>
<path d="M29.0533 95.2778H-21.1191V96.7743H29.0533V95.2778Z" fill="#D6ECFF"/>
<path d="M29.0533 85.3105H-21.1191V86.807H29.0533V85.3105Z" fill="#D6ECFF"/>
<path d="M29.0533 120.189H-21.1191V121.685H29.0533V120.189Z" fill="#D6ECFF"/>
<path d="M29.0533 110.222H-21.1191V111.718H29.0533V110.222Z" fill="#D6ECFF"/>
<path d="M29.0533 100.255H-21.1191V101.751H29.0533V100.255Z" fill="#D6ECFF"/>
<path d="M29.0533 90.2942H-21.1191V91.7906H29.0533V90.2942Z" fill="#D6ECFF"/>
<path d="M29.0533 80.327H-21.1191V81.8235H29.0533V80.327Z" fill="#D6ECFF"/>
<path d="M78.8814 125.173H28.709V126.669H78.8814V125.173Z" fill="#D6ECFF"/>
<path d="M78.8814 115.205H28.709V116.702H78.8814V115.205Z" fill="#D6ECFF"/>
<path d="M78.8814 105.238H28.709V106.735H78.8814V105.238Z" fill="#D6ECFF"/>
<path d="M78.8814 95.2778H28.709V96.7743H78.8814V95.2778Z" fill="#D6ECFF"/>
<path d="M78.8814 85.3105H28.709V86.807H78.8814V85.3105Z" fill="#D6ECFF"/>
<path d="M78.8814 120.189H28.709V121.685H78.8814V120.189Z" fill="#D6ECFF"/>
<path d="M78.8814 110.222H28.709V111.718H78.8814V110.222Z" fill="#D6ECFF"/>
<path d="M78.8814 100.255H28.709V101.751H78.8814V100.255Z" fill="#D6ECFF"/>
<path d="M78.8814 90.2942H28.709V91.7906H78.8814V90.2942Z" fill="#D6ECFF"/>
<path d="M78.8814 80.327H28.709V81.8235H78.8814V80.327Z" fill="#D6ECFF"/>
<path d="M128.711 125.173H78.5391V126.669H128.711V125.173Z" fill="#D6ECFF"/>
<path d="M128.711 115.205H78.5391V116.702H128.711V115.205Z" fill="#D6ECFF"/>
<path d="M128.711 105.238H78.5391V106.735H128.711V105.238Z" fill="#D6ECFF"/>
<path d="M128.711 95.2778H78.5391V96.7743H128.711V95.2778Z" fill="#D6ECFF"/>
<path d="M128.711 85.3105H78.5391V86.807H128.711V85.3105Z" fill="#D6ECFF"/>
<path d="M128.711 120.189H78.5391V121.685H128.711V120.189Z" fill="#D6ECFF"/>
<path d="M128.711 110.222H78.5391V111.718H128.711V110.222Z" fill="#D6ECFF"/>
<path d="M128.711 100.255H78.5391V101.751H128.711V100.255Z" fill="#D6ECFF"/>
<path d="M128.711 90.2942H78.5391V91.7906H128.711V90.2942Z" fill="#D6ECFF"/>
<path d="M128.711 80.327H78.5391V81.8235H128.711V80.327Z" fill="#D6ECFF"/>
</g>
<mask id="mask8_34065_11044" style="mask-type:luminance" maskUnits="userSpaceOnUse" x="28" y="128" width="51" height="51">
<path d="M78.712 128.413H28.8828V178.242H78.712V128.413Z" fill="white"/>
</mask>
<g mask="url(#mask8_34065_11044)">
<path d="M29.0533 155.067H-21.1191V156.564H29.0533V155.067Z" fill="#D6ECFF"/>
<path d="M29.0533 145.107H-21.1191V146.603H29.0533V145.107Z" fill="#D6ECFF"/>
<path d="M29.0533 135.14H-21.1191V136.636H29.0533V135.14Z" fill="#D6ECFF"/>
<path d="M29.0533 150.084H-21.1191V151.58H29.0533V150.084Z" fill="#D6ECFF"/>
<path d="M29.0533 140.123H-21.1191V141.62H29.0533V140.123Z" fill="#D6ECFF"/>
<path d="M29.0533 130.156H-21.1191V131.653H29.0533V130.156Z" fill="#D6ECFF"/>
<path d="M78.8814 155.067H28.709V156.564H78.8814V155.067Z" fill="#D6ECFF"/>
<path d="M78.8814 145.107H28.709V146.603H78.8814V145.107Z" fill="#D6ECFF"/>
<path d="M78.8814 135.14H28.709V136.636H78.8814V135.14Z" fill="#D6ECFF"/>
<path d="M78.8814 150.084H28.709V151.58H78.8814V150.084Z" fill="#D6ECFF"/>
<path d="M78.8814 140.123H28.709V141.62H78.8814V140.123Z" fill="#D6ECFF"/>
<path d="M78.8814 130.156H28.709V131.653H78.8814V130.156Z" fill="#D6ECFF"/>
<path d="M128.711 155.067H78.5391V156.564H128.711V155.067Z" fill="#D6ECFF"/>
<path d="M128.711 145.107H78.5391V146.603H128.711V145.107Z" fill="#D6ECFF"/>
<path d="M128.711 135.14H78.5391V136.636H128.711V135.14Z" fill="#D6ECFF"/>
<path d="M128.711 150.084H78.5391V151.58H128.711V150.084Z" fill="#D6ECFF"/>
<path d="M128.711 140.123H78.5391V141.62H128.711V140.123Z" fill="#D6ECFF"/>
<path d="M128.711 130.156H78.5391V131.653H128.711V130.156Z" fill="#D6ECFF"/>
</g>
<mask id="mask9_34065_11044" style="mask-type:luminance" maskUnits="userSpaceOnUse" x="78" y="-22" width="51" height="51">
<path d="M128.542 -21.075H78.7129V28.7542H128.542V-21.075Z" fill="white"/>
</mask>
<g mask="url(#mask9_34065_11044)">
<path d="M78.8853 25.5142H28.7129V27.0106H78.8853V25.5142Z" fill="#D6ECFF"/>
<path d="M78.8853 15.547H28.7129V17.0435H78.8853V15.547Z" fill="#D6ECFF"/>
<path d="M78.8853 5.58655H28.7129V7.083H78.8853V5.58655Z" fill="#D6ECFF"/>
<path d="M78.8853 20.5305H28.7129V22.027H78.8853V20.5305Z" fill="#D6ECFF"/>
<path d="M78.8853 10.5634H28.7129V12.0598H78.8853V10.5634Z" fill="#D6ECFF"/>
<path d="M128.715 25.5142H78.543V27.0106H128.715V25.5142Z" fill="#D6ECFF"/>
<path d="M128.715 15.547H78.543V17.0435H128.715V15.547Z" fill="#D6ECFF"/>
<path d="M128.715 5.58655H78.543V7.083H128.715V5.58655Z" fill="#D6ECFF"/>
<path d="M128.715 20.5305H78.543V22.027H128.715V20.5305Z" fill="#D6ECFF"/>
<path d="M128.715 10.5634H78.543V12.0598H128.715V10.5634Z" fill="#D6ECFF"/>
<path d="M178.543 25.5142H128.371V27.0106H178.543V25.5142Z" fill="#D6ECFF"/>
<path d="M178.543 15.547H128.371V17.0435H178.543V15.547Z" fill="#D6ECFF"/>
<path d="M178.543 5.58655H128.371V7.083H178.543V5.58655Z" fill="#D6ECFF"/>
<path d="M178.543 20.5305H128.371V22.027H178.543V20.5305Z" fill="#D6ECFF"/>
<path d="M178.543 10.5634H128.371V12.0598H178.543V10.5634Z" fill="#D6ECFF"/>
</g>
<mask id="mask10_34065_11044" style="mask-type:luminance" maskUnits="userSpaceOnUse" x="78" y="28" width="51" height="51">
<path d="M128.542 28.7542H78.7129V78.5833H128.542V28.7542Z" fill="white"/>
</mask>
<g mask="url(#mask10_34065_11044)">
<path d="M78.8853 75.3435H28.7129V76.84H78.8853V75.3435Z" fill="#D6ECFF"/>
<path d="M78.8853 65.3762H28.7129V66.8727H78.8853V65.3762Z" fill="#D6ECFF"/>
<path d="M78.8853 55.4089H28.7129V56.9054H78.8853V55.4089Z" fill="#D6ECFF"/>
<path d="M78.8853 45.4486H28.7129V46.9451H78.8853V45.4486Z" fill="#D6ECFF"/>
<path d="M78.8853 35.4814H28.7129V36.9779H78.8853V35.4814Z" fill="#D6ECFF"/>
<path d="M78.8853 70.3599H28.7129V71.8563H78.8853V70.3599Z" fill="#D6ECFF"/>
<path d="M78.8853 60.3926H28.7129V61.889H78.8853V60.3926Z" fill="#D6ECFF"/>
<path d="M78.8853 50.4323H28.7129V51.9287H78.8853V50.4323Z" fill="#D6ECFF"/>
<path d="M78.8853 40.4651H28.7129V41.9615H78.8853V40.4651Z" fill="#D6ECFF"/>
<path d="M78.8853 30.4978H28.7129V31.9943H78.8853V30.4978Z" fill="#D6ECFF"/>
<path d="M128.715 75.3435H78.543V76.84H128.715V75.3435Z" fill="#D6ECFF"/>
<path d="M128.715 65.3762H78.543V66.8727H128.715V65.3762Z" fill="#D6ECFF"/>
<path d="M128.715 55.4089H78.543V56.9054H128.715V55.4089Z" fill="#D6ECFF"/>
<path d="M128.715 45.4486H78.543V46.9451H128.715V45.4486Z" fill="#D6ECFF"/>
<path d="M128.715 35.4814H78.543V36.9779H128.715V35.4814Z" fill="#D6ECFF"/>
<path d="M128.715 70.3599H78.543V71.8563H128.715V70.3599Z" fill="#D6ECFF"/>
<path d="M128.715 60.3926H78.543V61.889H128.715V60.3926Z" fill="#D6ECFF"/>
<path d="M128.715 50.4323H78.543V51.9287H128.715V50.4323Z" fill="#D6ECFF"/>
<path d="M128.715 40.4651H78.543V41.9615H128.715V40.4651Z" fill="#D6ECFF"/>
<path d="M128.715 30.4978H78.543V31.9943H128.715V30.4978Z" fill="#D6ECFF"/>
<path d="M178.543 75.3435H128.371V76.84H178.543V75.3435Z" fill="#D6ECFF"/>
<path d="M178.543 65.3762H128.371V66.8727H178.543V65.3762Z" fill="#D6ECFF"/>
<path d="M178.543 55.4089H128.371V56.9054H178.543V55.4089Z" fill="#D6ECFF"/>
<path d="M178.543 45.4486H128.371V46.9451H178.543V45.4486Z" fill="#D6ECFF"/>
<path d="M178.543 35.4814H128.371V36.9779H178.543V35.4814Z" fill="#D6ECFF"/>
<path d="M178.543 70.3599H128.371V71.8563H178.543V70.3599Z" fill="#D6ECFF"/>
<path d="M178.543 60.3926H128.371V61.889H178.543V60.3926Z" fill="#D6ECFF"/>
<path d="M178.543 50.4323H128.371V51.9287H178.543V50.4323Z" fill="#D6ECFF"/>
<path d="M178.543 40.4651H128.371V41.9615H178.543V40.4651Z" fill="#D6ECFF"/>
<path d="M178.543 30.4978H128.371V31.9943H178.543V30.4978Z" fill="#D6ECFF"/>
</g>
<mask id="mask11_34065_11044" style="mask-type:luminance" maskUnits="userSpaceOnUse" x="78" y="78" width="51" height="51">
<path d="M128.542 78.5835H78.7129V128.413H128.542V78.5835Z" fill="white"/>
</mask>
<g mask="url(#mask11_34065_11044)">
<path d="M78.8853 125.173H28.7129V126.669H78.8853V125.173Z" fill="#D6ECFF"/>
<path d="M78.8853 115.205H28.7129V116.702H78.8853V115.205Z" fill="#D6ECFF"/>
<path d="M78.8853 105.238H28.7129V106.735H78.8853V105.238Z" fill="#D6ECFF"/>
<path d="M78.8853 95.2778H28.7129V96.7743H78.8853V95.2778Z" fill="#D6ECFF"/>
<path d="M78.8853 85.3105H28.7129V86.807H78.8853V85.3105Z" fill="#D6ECFF"/>
<path d="M78.8853 120.189H28.7129V121.685H78.8853V120.189Z" fill="#D6ECFF"/>
<path d="M78.8853 110.222H28.7129V111.718H78.8853V110.222Z" fill="#D6ECFF"/>
<path d="M78.8853 100.255H28.7129V101.751H78.8853V100.255Z" fill="#D6ECFF"/>
<path d="M78.8853 90.2942H28.7129V91.7906H78.8853V90.2942Z" fill="#D6ECFF"/>
<path d="M78.8853 80.327H28.7129V81.8235H78.8853V80.327Z" fill="#D6ECFF"/>
<path d="M128.715 125.173H78.543V126.669H128.715V125.173Z" fill="#D6ECFF"/>
<path d="M128.715 115.205H78.543V116.702H128.715V115.205Z" fill="#D6ECFF"/>
<path d="M128.715 105.238H78.543V106.735H128.715V105.238Z" fill="#D6ECFF"/>
<path d="M128.715 95.2778H78.543V96.7743H128.715V95.2778Z" fill="#D6ECFF"/>
<path d="M128.715 85.3105H78.543V86.807H128.715V85.3105Z" fill="#D6ECFF"/>
<path d="M128.715 120.189H78.543V121.685H128.715V120.189Z" fill="#D6ECFF"/>
<path d="M128.715 110.222H78.543V111.718H128.715V110.222Z" fill="#D6ECFF"/>
<path d="M128.715 100.255H78.543V101.751H128.715V100.255Z" fill="#D6ECFF"/>
<path d="M128.715 90.2942H78.543V91.7906H128.715V90.2942Z" fill="#D6ECFF"/>
<path d="M128.715 80.327H78.543V81.8235H128.715V80.327Z" fill="#D6ECFF"/>
<path d="M178.543 125.173H128.371V126.669H178.543V125.173Z" fill="#D6ECFF"/>
<path d="M178.543 115.205H128.371V116.702H178.543V115.205Z" fill="#D6ECFF"/>
<path d="M178.543 105.238H128.371V106.735H178.543V105.238Z" fill="#D6ECFF"/>
<path d="M178.543 95.2778H128.371V96.7743H178.543V95.2778Z" fill="#D6ECFF"/>
<path d="M178.543 85.3105H128.371V86.807H178.543V85.3105Z" fill="#D6ECFF"/>
<path d="M178.543 120.189H128.371V121.685H178.543V120.189Z" fill="#D6ECFF"/>
<path d="M178.543 110.222H128.371V111.718H178.543V110.222Z" fill="#D6ECFF"/>
<path d="M178.543 100.255H128.371V101.751H178.543V100.255Z" fill="#D6ECFF"/>
<path d="M178.543 90.2942H128.371V91.7906H178.543V90.2942Z" fill="#D6ECFF"/>
<path d="M178.543 80.327H128.371V81.8235H178.543V80.327Z" fill="#D6ECFF"/>
</g>
<mask id="mask12_34065_11044" style="mask-type:luminance" maskUnits="userSpaceOnUse" x="78" y="128" width="51" height="51">
<path d="M128.542 128.413H78.7129V178.242H128.542V128.413Z" fill="white"/>
</mask>
<g mask="url(#mask12_34065_11044)">
<path d="M78.8853 155.067H28.7129V156.564H78.8853V155.067Z" fill="#D6ECFF"/>
<path d="M78.8853 145.107H28.7129V146.603H78.8853V145.107Z" fill="#D6ECFF"/>
<path d="M78.8853 135.14H28.7129V136.636H78.8853V135.14Z" fill="#D6ECFF"/>
<path d="M78.8853 150.084H28.7129V151.58H78.8853V150.084Z" fill="#D6ECFF"/>
<path d="M78.8853 140.123H28.7129V141.62H78.8853V140.123Z" fill="#D6ECFF"/>
<path d="M78.8853 130.156H28.7129V131.653H78.8853V130.156Z" fill="#D6ECFF"/>
<path d="M128.715 155.067H78.543V156.564H128.715V155.067Z" fill="#D6ECFF"/>
<path d="M128.715 145.107H78.543V146.603H128.715V145.107Z" fill="#D6ECFF"/>
<path d="M128.715 135.14H78.543V136.636H128.715V135.14Z" fill="#D6ECFF"/>
<path d="M128.715 150.084H78.543V151.58H128.715V150.084Z" fill="#D6ECFF"/>
<path d="M128.715 140.123H78.543V141.62H128.715V140.123Z" fill="#D6ECFF"/>
<path d="M128.715 130.156H78.543V131.653H128.715V130.156Z" fill="#D6ECFF"/>
<path d="M178.543 155.067H128.371V156.564H178.543V155.067Z" fill="#D6ECFF"/>
<path d="M178.543 145.107H128.371V146.603H178.543V145.107Z" fill="#D6ECFF"/>
<path d="M178.543 135.14H128.371V136.636H178.543V135.14Z" fill="#D6ECFF"/>
<path d="M178.543 150.084H128.371V151.58H178.543V150.084Z" fill="#D6ECFF"/>
<path d="M178.543 140.123H128.371V141.62H178.543V140.123Z" fill="#D6ECFF"/>
<path d="M178.543 130.156H128.371V131.653H178.543V130.156Z" fill="#D6ECFF"/>
</g>
<mask id="mask13_34065_11044" style="mask-type:luminance" maskUnits="userSpaceOnUse" x="128" y="-22" width="51" height="51">
<path d="M178.37 -21.075H128.541V28.7542H178.37V-21.075Z" fill="white"/>
</mask>
<g mask="url(#mask13_34065_11044)">
<path d="M128.713 25.5142H78.541V27.0106H128.713V25.5142Z" fill="#D6ECFF"/>
<path d="M128.713 15.547H78.541V17.0435H128.713V15.547Z" fill="#D6ECFF"/>
<path d="M128.713 5.58655H78.541V7.083H128.713V5.58655Z" fill="#D6ECFF"/>
<path d="M128.713 20.5305H78.541V22.027H128.713V20.5305Z" fill="#D6ECFF"/>
<path d="M128.713 10.5634H78.541V12.0598H128.713V10.5634Z" fill="#D6ECFF"/>
<path d="M178.542 25.5142H128.369V27.0106H178.542V25.5142Z" fill="#D6ECFF"/>
<path d="M178.542 15.547H128.369V17.0435H178.542V15.547Z" fill="#D6ECFF"/>
<path d="M178.542 5.58655H128.369V7.083H178.542V5.58655Z" fill="#D6ECFF"/>
<path d="M178.542 20.5305H128.369V22.027H178.542V20.5305Z" fill="#D6ECFF"/>
<path d="M178.542 10.5634H128.369V12.0598H178.542V10.5634Z" fill="#D6ECFF"/>
<path d="M228.372 25.5142H178.199V27.0106H228.372V25.5142Z" fill="#D6ECFF"/>
<path d="M228.372 15.547H178.199V17.0435H228.372V15.547Z" fill="#D6ECFF"/>
<path d="M228.372 5.58655H178.199V7.083H228.372V5.58655Z" fill="#D6ECFF"/>
<path d="M228.372 20.5305H178.199V22.027H228.372V20.5305Z" fill="#D6ECFF"/>
<path d="M228.372 10.5634H178.199V12.0598H228.372V10.5634Z" fill="#D6ECFF"/>
</g>
<mask id="mask14_34065_11044" style="mask-type:luminance" maskUnits="userSpaceOnUse" x="128" y="28" width="51" height="51">
<path d="M178.37 28.7542H128.541V78.5833H178.37V28.7542Z" fill="white"/>
</mask>
<g mask="url(#mask14_34065_11044)">
<path d="M128.713 75.3435H78.541V76.84H128.713V75.3435Z" fill="#D6ECFF"/>
<path d="M128.713 65.3762H78.541V66.8727H128.713V65.3762Z" fill="#D6ECFF"/>
<path d="M128.713 55.4089H78.541V56.9054H128.713V55.4089Z" fill="#D6ECFF"/>
<path d="M128.713 45.4486H78.541V46.9451H128.713V45.4486Z" fill="#D6ECFF"/>
<path d="M128.713 35.4814H78.541V36.9779H128.713V35.4814Z" fill="#D6ECFF"/>
<path d="M128.713 70.3599H78.541V71.8563H128.713V70.3599Z" fill="#D6ECFF"/>
<path d="M128.713 60.3926H78.541V61.889H128.713V60.3926Z" fill="#D6ECFF"/>
<path d="M128.713 50.4323H78.541V51.9287H128.713V50.4323Z" fill="#D6ECFF"/>
<path d="M128.713 40.4651H78.541V41.9615H128.713V40.4651Z" fill="#D6ECFF"/>
<path d="M128.713 30.4978H78.541V31.9943H128.713V30.4978Z" fill="#D6ECFF"/>
<path d="M178.542 75.3435H128.369V76.84H178.542V75.3435Z" fill="#D6ECFF"/>
<path d="M178.542 65.3762H128.369V66.8727H178.542V65.3762Z" fill="#D6ECFF"/>
<path d="M178.542 55.4089H128.369V56.9054H178.542V55.4089Z" fill="#D6ECFF"/>
<path d="M178.542 45.4486H128.369V46.9451H178.542V45.4486Z" fill="#D6ECFF"/>
<path d="M178.542 35.4814H128.369V36.9779H178.542V35.4814Z" fill="#D6ECFF"/>
<path d="M178.542 70.3599H128.369V71.8563H178.542V70.3599Z" fill="#D6ECFF"/>
<path d="M178.542 60.3926H128.369V61.889H178.542V60.3926Z" fill="#D6ECFF"/>
<path d="M178.542 50.4323H128.369V51.9287H178.542V50.4323Z" fill="#D6ECFF"/>
<path d="M178.542 40.4651H128.369V41.9615H178.542V40.4651Z" fill="#D6ECFF"/>
<path d="M178.542 30.4978H128.369V31.9943H178.542V30.4978Z" fill="#D6ECFF"/>
<path d="M228.372 75.3435H178.199V76.84H228.372V75.3435Z" fill="#D6ECFF"/>
<path d="M228.372 65.3762H178.199V66.8727H228.372V65.3762Z" fill="#D6ECFF"/>
<path d="M228.372 55.4089H178.199V56.9054H228.372V55.4089Z" fill="#D6ECFF"/>
<path d="M228.372 45.4486H178.199V46.9451H228.372V45.4486Z" fill="#D6ECFF"/>
<path d="M228.372 35.4814H178.199V36.9779H228.372V35.4814Z" fill="#D6ECFF"/>
<path d="M228.372 70.3599H178.199V71.8563H228.372V70.3599Z" fill="#D6ECFF"/>
<path d="M228.372 60.3926H178.199V61.889H228.372V60.3926Z" fill="#D6ECFF"/>
<path d="M228.372 50.4323H178.199V51.9287H228.372V50.4323Z" fill="#D6ECFF"/>
<path d="M228.372 40.4651H178.199V41.9615H228.372V40.4651Z" fill="#D6ECFF"/>
<path d="M228.372 30.4978H178.199V31.9943H228.372V30.4978Z" fill="#D6ECFF"/>
</g>
<mask id="mask15_34065_11044" style="mask-type:luminance" maskUnits="userSpaceOnUse" x="128" y="78" width="51" height="51">
<path d="M178.37 78.5835H128.541V128.413H178.37V78.5835Z" fill="white"/>
</mask>
<g mask="url(#mask15_34065_11044)">
<path d="M128.713 125.173H78.541V126.669H128.713V125.173Z" fill="#D6ECFF"/>
<path d="M128.713 115.205H78.541V116.702H128.713V115.205Z" fill="#D6ECFF"/>
<path d="M128.713 105.238H78.541V106.735H128.713V105.238Z" fill="#D6ECFF"/>
<path d="M128.713 95.2778H78.541V96.7743H128.713V95.2778Z" fill="#D6ECFF"/>
<path d="M128.713 85.3105H78.541V86.807H128.713V85.3105Z" fill="#D6ECFF"/>
<path d="M128.713 120.189H78.541V121.685H128.713V120.189Z" fill="#D6ECFF"/>
<path d="M128.713 110.222H78.541V111.718H128.713V110.222Z" fill="#D6ECFF"/>
<path d="M128.713 100.255H78.541V101.751H128.713V100.255Z" fill="#D6ECFF"/>
<path d="M128.713 90.2942H78.541V91.7906H128.713V90.2942Z" fill="#D6ECFF"/>
<path d="M128.713 80.327H78.541V81.8235H128.713V80.327Z" fill="#D6ECFF"/>
<path d="M178.542 125.173H128.369V126.669H178.542V125.173Z" fill="#D6ECFF"/>
<path d="M178.542 115.205H128.369V116.702H178.542V115.205Z" fill="#D6ECFF"/>
<path d="M178.542 105.238H128.369V106.735H178.542V105.238Z" fill="#D6ECFF"/>
<path d="M178.542 95.2778H128.369V96.7743H178.542V95.2778Z" fill="#D6ECFF"/>
<path d="M178.542 85.3105H128.369V86.807H178.542V85.3105Z" fill="#D6ECFF"/>
<path d="M178.542 120.189H128.369V121.685H178.542V120.189Z" fill="#D6ECFF"/>
<path d="M178.542 110.222H128.369V111.718H178.542V110.222Z" fill="#D6ECFF"/>
<path d="M178.542 100.255H128.369V101.751H178.542V100.255Z" fill="#D6ECFF"/>
<path d="M178.542 90.2942H128.369V91.7906H178.542V90.2942Z" fill="#D6ECFF"/>
<path d="M178.542 80.327H128.369V81.8235H178.542V80.327Z" fill="#D6ECFF"/>
<path d="M228.372 125.173H178.199V126.669H228.372V125.173Z" fill="#D6ECFF"/>
<path d="M228.372 115.205H178.199V116.702H228.372V115.205Z" fill="#D6ECFF"/>
<path d="M228.372 105.238H178.199V106.735H228.372V105.238Z" fill="#D6ECFF"/>
<path d="M228.372 95.2778H178.199V96.7743H228.372V95.2778Z" fill="#D6ECFF"/>
<path d="M228.372 85.3105H178.199V86.807H228.372V85.3105Z" fill="#D6ECFF"/>
<path d="M228.372 120.189H178.199V121.685H228.372V120.189Z" fill="#D6ECFF"/>
<path d="M228.372 110.222H178.199V111.718H228.372V110.222Z" fill="#D6ECFF"/>
<path d="M228.372 100.255H178.199V101.751H228.372V100.255Z" fill="#D6ECFF"/>
<path d="M228.372 90.2942H178.199V91.7906H228.372V90.2942Z" fill="#D6ECFF"/>
<path d="M228.372 80.327H178.199V81.8235H228.372V80.327Z" fill="#D6ECFF"/>
</g>
<mask id="mask16_34065_11044" style="mask-type:luminance" maskUnits="userSpaceOnUse" x="128" y="128" width="51" height="51">
<path d="M178.37 128.413H128.541V178.242H178.37V128.413Z" fill="white"/>
</mask>
<g mask="url(#mask16_34065_11044)">
<path d="M128.713 155.067H78.541V156.564H128.713V155.067Z" fill="#D6ECFF"/>
<path d="M128.713 145.107H78.541V146.603H128.713V145.107Z" fill="#D6ECFF"/>
<path d="M128.713 135.14H78.541V136.636H128.713V135.14Z" fill="#D6ECFF"/>
<path d="M128.713 150.084H78.541V151.58H128.713V150.084Z" fill="#D6ECFF"/>
<path d="M128.713 140.123H78.541V141.62H128.713V140.123Z" fill="#D6ECFF"/>
<path d="M128.713 130.156H78.541V131.653H128.713V130.156Z" fill="#D6ECFF"/>
<path d="M178.542 155.067H128.369V156.564H178.542V155.067Z" fill="#D6ECFF"/>
<path d="M178.542 145.107H128.369V146.603H178.542V145.107Z" fill="#D6ECFF"/>
<path d="M178.542 135.14H128.369V136.636H178.542V135.14Z" fill="#D6ECFF"/>
<path d="M178.542 150.084H128.369V151.58H178.542V150.084Z" fill="#D6ECFF"/>
<path d="M178.542 140.123H128.369V141.62H178.542V140.123Z" fill="#D6ECFF"/>
<path d="M178.542 130.156H128.369V131.653H178.542V130.156Z" fill="#D6ECFF"/>
<path d="M228.372 155.067H178.199V156.564H228.372V155.067Z" fill="#D6ECFF"/>
<path d="M228.372 145.107H178.199V146.603H228.372V145.107Z" fill="#D6ECFF"/>
<path d="M228.372 135.14H178.199V136.636H228.372V135.14Z" fill="#D6ECFF"/>
<path d="M228.372 150.084H178.199V151.58H228.372V150.084Z" fill="#D6ECFF"/>
<path d="M228.372 140.123H178.199V141.62H228.372V140.123Z" fill="#D6ECFF"/>
<path d="M228.372 130.156H178.199V131.653H228.372V130.156Z" fill="#D6ECFF"/>
</g>
<mask id="mask17_34065_11044" style="mask-type:luminance" maskUnits="userSpaceOnUse" x="178" y="-22" width="51" height="51">
<path d="M228.2 -21.075H178.371V28.7542H228.2V-21.075Z" fill="white"/>
</mask>
<g mask="url(#mask17_34065_11044)">
<path d="M178.543 25.5142H128.371V27.0106H178.543V25.5142Z" fill="#D6ECFF"/>
<path d="M178.543 15.547H128.371V17.0435H178.543V15.547Z" fill="#D6ECFF"/>
<path d="M178.543 5.58655H128.371V7.083H178.543V5.58655Z" fill="#D6ECFF"/>
<path d="M178.543 20.5305H128.371V22.027H178.543V20.5305Z" fill="#D6ECFF"/>
<path d="M178.543 10.5634H128.371V12.0598H178.543V10.5634Z" fill="#D6ECFF"/>
<path d="M228.372 25.5142H178.199V27.0106H228.372V25.5142Z" fill="#D6ECFF"/>
<path d="M228.372 15.547H178.199V17.0435H228.372V15.547Z" fill="#D6ECFF"/>
<path d="M228.372 5.58655H178.199V7.083H228.372V5.58655Z" fill="#D6ECFF"/>
<path d="M228.372 20.5305H178.199V22.027H228.372V20.5305Z" fill="#D6ECFF"/>
<path d="M228.372 10.5634H178.199V12.0598H228.372V10.5634Z" fill="#D6ECFF"/>
</g>
<mask id="mask18_34065_11044" style="mask-type:luminance" maskUnits="userSpaceOnUse" x="178" y="28" width="51" height="51">
<path d="M228.2 28.7542H178.371V78.5833H228.2V28.7542Z" fill="white"/>
</mask>
<g mask="url(#mask18_34065_11044)">
<path d="M178.543 75.3435H128.371V76.84H178.543V75.3435Z" fill="#D6ECFF"/>
<path d="M178.543 65.3762H128.371V66.8727H178.543V65.3762Z" fill="#D6ECFF"/>
<path d="M178.543 55.4089H128.371V56.9054H178.543V55.4089Z" fill="#D6ECFF"/>
<path d="M178.543 45.4486H128.371V46.9451H178.543V45.4486Z" fill="#D6ECFF"/>
<path d="M178.543 35.4814H128.371V36.9779H178.543V35.4814Z" fill="#D6ECFF"/>
<path d="M178.543 70.3599H128.371V71.8563H178.543V70.3599Z" fill="#D6ECFF"/>
<path d="M178.543 60.3926H128.371V61.889H178.543V60.3926Z" fill="#D6ECFF"/>
<path d="M178.543 50.4323H128.371V51.9287H178.543V50.4323Z" fill="#D6ECFF"/>
<path d="M178.543 40.4651H128.371V41.9615H178.543V40.4651Z" fill="#D6ECFF"/>
<path d="M178.543 30.4978H128.371V31.9943H178.543V30.4978Z" fill="#D6ECFF"/>
<path d="M228.372 75.3435H178.199V76.84H228.372V75.3435Z" fill="#D6ECFF"/>
<path d="M228.372 65.3762H178.199V66.8727H228.372V65.3762Z" fill="#D6ECFF"/>
<path d="M228.372 55.4089H178.199V56.9054H228.372V55.4089Z" fill="#D6ECFF"/>
<path d="M228.372 45.4486H178.199V46.9451H228.372V45.4486Z" fill="#D6ECFF"/>
<path d="M228.372 35.4814H178.199V36.9779H228.372V35.4814Z" fill="#D6ECFF"/>
<path d="M228.372 70.3599H178.199V71.8563H228.372V70.3599Z" fill="#D6ECFF"/>
<path d="M228.372 60.3926H178.199V61.889H228.372V60.3926Z" fill="#D6ECFF"/>
<path d="M228.372 50.4323H178.199V51.9287H228.372V50.4323Z" fill="#D6ECFF"/>
<path d="M228.372 40.4651H178.199V41.9615H228.372V40.4651Z" fill="#D6ECFF"/>
<path d="M228.372 30.4978H178.199V31.9943H228.372V30.4978Z" fill="#D6ECFF"/>
</g>
<mask id="mask19_34065_11044" style="mask-type:luminance" maskUnits="userSpaceOnUse" x="178" y="78" width="51" height="51">
<path d="M228.2 78.5835H178.371V128.413H228.2V78.5835Z" fill="white"/>
</mask>
<g mask="url(#mask19_34065_11044)">
<path d="M178.543 125.173H128.371V126.669H178.543V125.173Z" fill="#D6ECFF"/>
<path d="M178.543 115.205H128.371V116.702H178.543V115.205Z" fill="#D6ECFF"/>
<path d="M178.543 105.238H128.371V106.735H178.543V105.238Z" fill="#D6ECFF"/>
<path d="M178.543 95.2778H128.371V96.7743H178.543V95.2778Z" fill="#D6ECFF"/>
<path d="M178.543 85.3105H128.371V86.807H178.543V85.3105Z" fill="#D6ECFF"/>
<path d="M178.543 120.189H128.371V121.685H178.543V120.189Z" fill="#D6ECFF"/>
<path d="M178.543 110.222H128.371V111.718H178.543V110.222Z" fill="#D6ECFF"/>
<path d="M178.543 100.255H128.371V101.751H178.543V100.255Z" fill="#D6ECFF"/>
<path d="M178.543 90.2942H128.371V91.7906H178.543V90.2942Z" fill="#D6ECFF"/>
<path d="M178.543 80.327H128.371V81.8235H178.543V80.327Z" fill="#D6ECFF"/>
<path d="M228.372 125.173H178.199V126.669H228.372V125.173Z" fill="#D6ECFF"/>
<path d="M228.372 115.205H178.199V116.702H228.372V115.205Z" fill="#D6ECFF"/>
<path d="M228.372 105.238H178.199V106.735H228.372V105.238Z" fill="#D6ECFF"/>
<path d="M228.372 95.2778H178.199V96.7743H228.372V95.2778Z" fill="#D6ECFF"/>
<path d="M228.372 85.3105H178.199V86.807H228.372V85.3105Z" fill="#D6ECFF"/>
<path d="M228.372 120.189H178.199V121.685H228.372V120.189Z" fill="#D6ECFF"/>
<path d="M228.372 110.222H178.199V111.718H228.372V110.222Z" fill="#D6ECFF"/>
<path d="M228.372 100.255H178.199V101.751H228.372V100.255Z" fill="#D6ECFF"/>
<path d="M228.372 90.2942H178.199V91.7906H228.372V90.2942Z" fill="#D6ECFF"/>
<path d="M228.372 80.327H178.199V81.8235H228.372V80.327Z" fill="#D6ECFF"/>
</g>
<mask id="mask20_34065_11044" style="mask-type:luminance" maskUnits="userSpaceOnUse" x="178" y="128" width="51" height="51">
<path d="M228.2 128.413H178.371V178.242H228.2V128.413Z" fill="white"/>
</mask>
<g mask="url(#mask20_34065_11044)">
<path d="M178.543 155.067H128.371V156.564H178.543V155.067Z" fill="#D6ECFF"/>
<path d="M178.543 145.107H128.371V146.603H178.543V145.107Z" fill="#D6ECFF"/>
<path d="M178.543 135.14H128.371V136.636H178.543V135.14Z" fill="#D6ECFF"/>
<path d="M178.543 150.084H128.371V151.58H178.543V150.084Z" fill="#D6ECFF"/>
<path d="M178.543 140.123H128.371V141.62H178.543V140.123Z" fill="#D6ECFF"/>
<path d="M178.543 130.156H128.371V131.653H178.543V130.156Z" fill="#D6ECFF"/>
<path d="M228.372 155.067H178.199V156.564H228.372V155.067Z" fill="#D6ECFF"/>
<path d="M228.372 145.107H178.199V146.603H228.372V145.107Z" fill="#D6ECFF"/>
<path d="M228.372 135.14H178.199V136.636H228.372V135.14Z" fill="#D6ECFF"/>
<path d="M228.372 150.084H178.199V151.58H228.372V150.084Z" fill="#D6ECFF"/>
<path d="M228.372 140.123H178.199V141.62H228.372V140.123Z" fill="#D6ECFF"/>
<path d="M228.372 130.156H178.199V131.653H228.372V130.156Z" fill="#D6ECFF"/>
</g>
</g>
</g>
<path d="M199.164 75.1938C212.41 61.9482 212.41 40.4729 199.164 27.2274C185.919 13.9818 164.444 13.9818 151.198 27.2274C137.952 40.4729 137.952 61.9482 151.198 75.1938C164.444 88.4393 185.919 88.4393 199.164 75.1938Z" fill="#1AA355"/>
<path d="M204.237 73.147C217.29 60.0945 217.29 38.9321 204.237 25.8796C191.185 12.8271 170.022 12.8271 156.97 25.8796C143.917 38.9321 143.917 60.0945 156.97 73.147C170.022 86.1995 191.185 86.1996 204.237 73.147Z" stroke="#0E1329" stroke-width="1.02967" stroke-miterlimit="10"/>
<path d="M193.363 33.271L172.056 54.5783C171.665 54.9696 171.033 54.9696 170.649 54.5783L163.064 46.9931C162.672 46.6018 162.041 46.6018 161.656 46.9931L156.817 51.8325C156.426 52.2238 156.426 52.8553 156.817 53.2397L170.656 67.0785C171.047 67.4698 171.678 67.4698 172.063 67.0785L199.624 39.5177C200.015 39.1264 200.015 38.4949 199.624 38.1104L194.784 33.271C194.393 32.8797 193.761 32.8797 193.377 33.271H193.363Z" fill="white"/>
<path d="M116.13 11.7785C116.13 11.7785 84.2723 3.0606 80.0918 28.1296C80.0918 28.1296 80.7439 53.487 82.11 69.543C82.11 69.543 82.0138 83.9309 107.097 86.3335C126.235 88.1663 125.493 75.0071 125.493 75.0071C125.493 75.0071 126.832 13.8721 116.13 11.7716V11.7785Z" fill="#331A12"/>
<path d="M88.541 63.9553C88.541 63.9553 92.392 49.3271 93.2295 41.7213L111.297 47.2541C111.297 47.2541 108.887 59.3561 108.585 67.0169C108.585 67.0169 95.8379 70.8541 88.541 63.9553Z" fill="#FCC48E"/>
<path d="M88.541 63.9553C88.541 63.9553 92.392 49.3271 93.2295 41.7213L111.297 47.2541C111.297 47.2541 108.887 59.3561 108.585 67.0169" stroke="#09091A" stroke-width="1.20128" stroke-linecap="round" stroke-linejoin="round"/>
<path d="M86.9009 78.9541C83.1186 62.6304 87.6697 23.7363 87.6697 23.7363L81.4437 23.1735C80.8671 24.6631 80.3934 26.2968 80.0914 28.1296C80.0914 28.1296 79.9609 50.3018 82.1095 69.5429C82.1782 71.9798 83.2284 73.9499 83.6334 74.9727C84.7455 77.8215 86.9078 78.9541 86.9078 78.9541H86.9009Z" fill="#66360F"/>
<path d="M111.662 36.8955C111.449 38.2547 105.168 37.6643 105.168 36.8337C104.269 39.8266 105.717 44.2405 108.772 44.5425C108.772 44.5425 112.472 43.8767 111.662 36.8955Z" fill="white"/>
<g clip-path="url(#clip0_34065_11044)">
<path d="M119.87 17.3852C119.87 17.3852 117.038 4.56705 100.921 6.25736C100.921 6.25736 83.4913 8.31835 86.7014 26.8969C84.9963 26.6374 83.4023 28.2536 83.0391 30.1218C82.5349 32.7463 83.4691 35.6005 85.4411 37.1055C86.7162 38.0766 88.8217 38.6327 90.3563 38.351L90.0375 36.7941C92.573 50.1164 103.671 51.7696 107.296 51.5027C107.875 51.4508 108.431 51.3693 108.965 51.2581C124.214 48.0257 119.87 17.3778 119.87 17.3778V17.3852Z" fill="#FCC48E"/>
<path d="M119.87 17.3853C119.87 17.3853 124.525 50.2202 107.296 51.5102C103.671 51.7771 92.5726 50.1238 90.0371 36.8015" stroke="black" stroke-width="1.29738" stroke-linecap="round" stroke-linejoin="round"/>
<path d="M90.2443 38.3806C88.7171 38.6104 86.6858 38.047 85.4477 37.1054C83.4757 35.6005 82.5341 32.7462 83.0457 30.1218C83.4089 28.2536 85.0029 26.6374 86.708 26.8969" stroke="black" stroke-width="1.29738" stroke-linecap="round" stroke-linejoin="round"/>
<path d="M88.0795 30.8854C87.8645 31.3524 87.9164 32.0271 88.0647 32.5831C88.213 33.1391 88.6059 33.6803 89.2435 33.9027" stroke="black" stroke-width="1.29738" stroke-linecap="round" stroke-linejoin="round"/>
</g>
<path d="M115.568 31.5961C116.375 31.5961 117.03 30.6526 117.03 29.4887C117.03 28.3249 116.375 27.3813 115.568 27.3813C114.76 27.3813 114.105 28.3249 114.105 29.4887C114.105 30.6526 114.76 31.5961 115.568 31.5961Z" fill="#090816"/>
<path d="M101.048 31.8159C101.856 31.8159 102.51 30.8723 102.51 29.7085C102.51 28.5446 101.856 27.6011 101.048 27.6011C100.241 27.6011 99.5859 28.5446 99.5859 29.7085C99.5859 30.8723 100.241 31.8159 101.048 31.8159Z" fill="#090816"/>
<path d="M108.875 29.5505C110.117 31.1156 110.22 34.0262 109.863 34.1909" stroke="#09091A" stroke-width="1.20128" stroke-linecap="round" stroke-linejoin="round"/>
<path d="M111.662 36.8955C111.449 38.2547 105.168 37.6643 105.168 36.8337C104.269 39.8266 105.717 44.2405 108.772 44.5425" stroke="#09091A" stroke-width="1.20128" stroke-linecap="round" stroke-linejoin="round"/>
<path d="M113.384 23.3863C112.897 23.2833 112.506 23.05 112.416 22.5283C112.341 22.0821 112.464 21.6084 112.732 21.2583C113.123 20.7504 113.693 20.6886 114.27 20.6817C116.185 20.6474 117.414 21.4643 117.791 22.1438C117.949 22.4253 117.929 22.8577 117.668 23.0225C117.119 23.3794 114.112 23.5305 113.391 23.3794L113.384 23.3863Z" fill="#66360F"/>
<path d="M102.675 23.551C103.162 23.448 103.554 23.2146 103.643 22.6929C103.718 22.2467 103.595 21.7731 103.327 21.423C102.936 20.915 102.366 20.8532 101.789 20.8464C99.8742 20.8121 98.6454 21.6289 98.2679 22.3085C98.11 22.59 98.1306 23.0224 98.3915 23.1872C98.9406 23.5441 101.947 23.6951 102.668 23.5441L102.675 23.551Z" fill="#66360F"/>
<path d="M101.214 34.2596C101.406 35.255 99.8962 35.8659 98.8597 35.8659C97.5211 35.8659 96.4297 35.1451 96.4297 34.2528C96.4297 33.3672 97.6378 32.8936 98.5645 32.9005C99.4981 32.9005 100.754 33.1819 101.132 34.0194C101.173 34.1017 101.194 34.1841 101.214 34.2665V34.2596Z" fill="#FF7E80"/>
<path d="M119.494 34.1017C119.686 35.097 118.176 35.708 117.139 35.708C115.8 35.708 114.709 34.9872 114.709 34.0948C114.709 33.2093 115.917 32.7356 116.844 32.7425C117.777 32.7425 119.034 33.0239 119.411 33.8614C119.452 33.9438 119.473 34.0262 119.494 34.1085V34.1017Z" fill="#FF7E80"/>
<path d="M130.441 10.5565L135.192 7.70093" stroke="#09091A" stroke-width="1.20128" stroke-linecap="round" stroke-linejoin="round"/>
<path d="M133.99 14.7371L136.145 14.7508" stroke="#09091A" stroke-width="1.20128" stroke-linecap="round" stroke-linejoin="round"/>
<path d="M128.85 7.68652L129.996 5.86816" stroke="#09091A" stroke-width="1.20128" stroke-linecap="round" stroke-linejoin="round"/>
<path d="M117.792 63.5434C109.39 66.2274 104.64 75.618 109.5 98.3669C109.5 98.3669 114.491 122.248 118.046 133.774C118.046 133.774 121.739 146.514 136.882 145.299C143.747 144.75 152.712 138.936 151.765 122.269C151.765 122.269 149.389 100.618 142.45 78.3158C141.049 73.8195 137.006 69.4743 134.144 67.4562C129.414 64.1201 123.188 61.8205 117.792 63.5434Z" fill="#FC8625"/>
<path d="M194.31 100.646C208.705 117.258 199.293 139.451 199.293 139.451L187.081 138.249L182.283 108.011L194.31 100.639V100.646Z" fill="#0C132A"/>
<path d="M192.456 108.581C192.456 108.581 185.894 108.41 173.64 109.556C165.348 110.332 171.375 127.191 171.375 127.191C171.375 127.191 187.548 124.5 192.49 124.122" fill="#FCC48E"/>
<path d="M192.456 108.581C192.456 108.581 185.894 108.41 173.64 109.556C165.348 110.332 171.375 127.191 171.375 127.191C171.375 127.191 187.548 124.5 192.49 124.122" stroke="#09091A" stroke-width="1.02967" stroke-linecap="round" stroke-linejoin="round"/>
<path d="M132.564 145.341C149.032 145.952 177.128 142.993 199.294 139.458C199.294 139.458 178.391 125.022 194.31 100.653C194.31 100.653 154.681 106.453 133.704 112.487C127.78 114.19 116.934 121.226 117.86 130.479C118.664 138.456 123.517 145.004 132.557 145.341H132.564Z" fill="#FC8625"/>
<path d="M194.309 100.646C194.309 100.646 166.302 103.776 145.324 109.81" stroke="#09091A" stroke-width="1.02967" stroke-linecap="round" stroke-linejoin="round"/>
<path d="M133.807 157.614C133.882 152.596 133.917 149.741 133.917 149.741C135.544 130.307 116.728 126.161 116.728 126.161C97.0956 123.752 91.1441 136.005 91.1441 136.005C89.0642 141.86 87.6845 150.461 86.7715 158.932C101.187 158.966 117.16 158.623 133.814 157.614H133.807Z" fill="#3365AE"/>
<path d="M56.6836 158.321C70.0624 158.829 86.4685 159.131 104.515 158.774C105.62 147.345 106.499 132.414 104.824 123.614C104.824 123.614 100.87 111.306 80.8671 113.475C80.8671 113.475 61.3926 117.395 59.8481 136.821C59.8481 136.821 58.5919 145.121 56.6836 158.314V158.321Z" fill="#3365AE"/>
<path d="M103.32 145.416C103.32 145.416 103.1 151.244 102.469 158.815" stroke="#09091A" stroke-width="1.02967" stroke-linecap="round" stroke-linejoin="round"/>
<path d="M98.8381 143.665C98.8381 143.665 98.2615 149.987 97.3828 159.364" stroke="#09091A" stroke-width="1.02967" stroke-linecap="round" stroke-linejoin="round"/>
<path d="M77.875 149.37C77.875 149.37 102.745 150.386 117.716 150.99" stroke="#09091A" stroke-width="1.02967" stroke-linecap="round" stroke-linejoin="round"/>
<path d="M57.8792 150.894C57.8792 150.894 84.8635 150.489 96.1761 143.46C96.1761 143.46 114.758 151.175 124.115 152.109C124.115 152.109 133.34 154.161 135.427 143.357L124.547 63.262C124.547 63.262 116.742 62.1774 113.234 60.1592C113.234 60.1592 101.228 65.5204 86.9846 59.0884C86.9846 59.0884 75.2258 61.4154 69.3498 63.9827C69.3498 63.9827 30.5175 153.791 57.8792 150.894Z" fill="#ECF0F1"/>
<path d="M43.3613 157.703C52.7519 158.218 64.7167 158.699 78.3976 158.87C78.4388 158.712 78.48 158.541 78.5143 158.383C83.0105 138.517 81.8092 60.2347 81.8092 60.2347C81.8092 60.2347 55.4771 62.7952 47.48 75.316C47.48 75.316 44.2812 89.4705 43.5123 155.184C43.5055 155.912 43.4506 156.763 43.3613 157.703Z" fill="#FC8625"/>
<path d="M43.3613 157.703C48.9902 158.012 55.5389 158.307 62.829 158.534C61.9572 151.532 60.9893 145.265 59.9047 141.791C58.1337 136.115 55.9988 130.431 52.1959 125.962C50.1777 123.594 47.1231 124.877 44.0272 127.98C43.8075 135.881 43.629 144.901 43.5123 155.191C43.5055 155.919 43.4506 156.77 43.3613 157.71V157.703Z" fill="#C96D1C"/>
<path d="M72.8846 70.0372C79.7079 75.0826 84.005 84.0957 68.9032 104.106C68.9032 104.106 53.163 125.138 44.4657 134.955C44.4657 134.955 35.0751 145.869 21.1196 140.185C14.7906 137.611 8.86655 129.442 17.4197 114.004C17.4197 114.004 29.6247 94.2894 46.5113 75.3298C49.9161 71.5063 54.4398 68.6644 59.4577 67.5729C63.6107 66.6668 68.4982 66.7972 72.8777 70.0441L72.8846 70.0372Z" fill="#FC8625"/>
<path d="M44.4648 134.948C49.6887 129.923 64.516 110.84 73.6732 91.2897" stroke="#09091A" stroke-width="1.02967" stroke-linecap="round" stroke-linejoin="round"/>
<path d="M135.289 157.525C135.118 154.793 135.021 152.37 135.021 150.379C135.001 130.424 137.966 112.096 139.724 103.007C141.357 94.564 140.321 86.0041 136.621 78.6522C133.511 72.4742 131.775 68.4791 128.61 65.7882C125.48 63.1179 119.192 62.0608 119.192 62.0608C119.192 62.0608 118.121 135.778 119.624 158.328C124.759 158.122 129.99 157.861 135.282 157.525H135.289Z" fill="#FC8625"/>
<path d="M136.621 78.6522C140.321 86.0109 141.351 94.5641 139.724 103.007C137.966 112.096 135.001 130.424 135.022 150.379C135.022 152.37 135.118 154.793 135.289 157.525" stroke="#09091A" stroke-width="1.02967" stroke-linecap="round" stroke-linejoin="round"/>
<path d="M114.8 163.099C113.873 163.751 108.409 166.888 107.544 166.881C105.059 166.874 102.526 166.586 100.116 165.954C93.1559 164.122 86.2983 161.444 79.5505 158.96C72.0545 156.193 35.7415 149.83 26.55 138.977C22.3352 134 19.4384 126.717 22.6441 121.033C25.4036 116.146 31.6434 114.375 37.2517 114.43C45.8391 114.505 86.1679 145.066 92.9294 146.686C92.9294 146.686 99.6772 141.537 101.688 140.714C103.151 140.117 110.345 141.455 112.747 142.89C114.587 143.995 115.912 147.4 115.912 147.4L106.02 147.468C106.02 147.468 116.241 146.857 117.806 147.784C118.534 148.217 119.721 150.901 119.296 151.958C118.85 153.063 116.619 153.935 116.619 153.935C116.598 154.8 116.07 162.2 114.8 163.092V163.099Z" fill="#FCC48E" stroke="#09091A" stroke-width="1.02967" stroke-linecap="round" stroke-linejoin="round"/>
<path d="M115.554 159.653L112.809 161.273" stroke="#09091A" stroke-width="1.02967" stroke-linecap="round" stroke-linejoin="round"/>
<path d="M116.619 153.935L111.457 155.465" stroke="#09091A" stroke-width="1.02967" stroke-linecap="round" stroke-linejoin="round"/>
<path d="M106.522 148.21C105.643 147.413 103.906 145.629 103.906 145.629" stroke="#09091A" stroke-width="1.02967" stroke-linecap="round" stroke-linejoin="round"/>
<path d="M20.8648 141.002C34.9987 149.473 61.0425 160.415 82.1714 168C82.1714 168 96.6005 153.818 96.5044 131.598C96.5044 131.598 58.9832 117.581 37.6965 112.762C31.6832 111.403 18.7917 112.336 15.1467 120.896C12.0028 128.269 13.1079 136.348 20.8648 141.002Z" fill="#FC8625"/>
<path d="M96.5052 131.598C96.5052 131.598 58.984 117.581 37.6973 112.762" stroke="#09091A" stroke-width="1.02967" stroke-linecap="round" stroke-linejoin="round"/>
<path d="M103.247 11.6618C101.956 16.7484 99.1008 21.8006 95.5862 24.6151C92.7237 26.9078 86.429 29.2623 80.0931 28.1228C80.0931 28.1228 78.9124 14.2978 85.77 7.55684C89.8818 3.52054 106.103 0.0196552 117.628 5.827C117.628 5.827 123.573 8.4149 126.456 17.4142C129.517 26.9558 129.215 68.9321 126.538 87.4181C126.49 87.7407 122.303 89.0244 122.303 89.0244C122.68 56.123 120.566 34.5754 120.566 34.5754C120.566 34.5754 119.578 26.4616 116.392 22.0821C115.02 20.1943 109.233 15.3343 103.254 11.6618H103.247Z" fill="#66360F"/>
<path d="M201.002 129.298C201.002 129.298 199.485 142.492 159.699 143.137C133.168 143.569 120.262 141.819 111.188 147.221" stroke="#09091A" stroke-width="1.20128" stroke-linecap="round" stroke-linejoin="round"/>
<path d="M210.655 126.834C210.655 126.834 202.054 128.014 196.617 125.166C196.617 125.166 194.174 124.836 192.231 123.347C190.92 122.344 189.897 120.683 189.773 118.72C189.773 118.72 192.382 113.503 196.013 111.485L204.155 109.769L211.911 108.986L215.117 111.32L215.556 115.7L213.373 123.484L210.655 126.841V126.834Z" fill="#FCC48E"/>
<path d="M210.656 126.834C210.656 126.834 198.149 126.93 192.705 124.081L210.656 126.834Z" fill="#FCC48E"/>
<path d="M210.656 126.834C210.656 126.834 198.149 126.93 192.705 124.081" stroke="#09091A" stroke-width="1.02967" stroke-linecap="round" stroke-linejoin="round"/>
<path d="M199.444 133.76C198.998 133.76 198.566 133.568 198.257 133.238C197.955 132.916 197.81 132.483 197.845 132.037L198.641 121.932L199.884 106.062L200.364 99.9661L201.147 89.9714C201.208 89.1477 201.902 88.5024 202.732 88.5024C202.973 88.5024 203.206 88.5574 203.426 88.6603L212.72 93.1154C212.782 93.1428 212.837 93.1634 212.892 93.1703L220.271 94.0146C220.518 94.0489 220.738 94.1244 220.93 94.2411L232.346 101.257C232.778 101.517 233.053 101.957 233.101 102.465C233.149 102.966 232.963 103.453 232.593 103.79L216.043 119.036L209.864 124.733L200.508 133.348C200.213 133.623 199.829 133.774 199.437 133.774L199.444 133.76Z" fill="#F46666"/>
<path d="M202.747 89.0038C202.904 89.0038 203.062 89.0381 203.22 89.1136L203.557 89.2715L211.265 92.9646L212.522 93.5686C212.631 93.6236 212.748 93.6579 212.865 93.6716L220.237 94.5159C220.395 94.5365 220.546 94.5846 220.677 94.667L232.092 101.682C232.703 102.053 232.785 102.911 232.257 103.399L227.541 107.744L224.239 110.785L219.036 115.576L215.707 118.638L209.529 124.335L206.241 127.362L200.172 132.95C199.953 133.149 199.699 133.238 199.452 133.238C198.868 133.238 198.312 132.758 198.367 132.071L199.163 121.967L199.589 116.482L200.406 106.096L200.886 100.001L201.669 90.006C201.71 89.4225 202.204 89.0106 202.74 89.0106M202.74 87.981C201.641 87.981 200.721 88.839 200.639 89.9305L199.857 99.9183L199.376 106.014L198.559 116.4L198.134 121.885L197.337 131.989C197.289 132.586 197.481 133.149 197.886 133.582C198.291 134.014 198.861 134.268 199.452 134.268C199.973 134.268 200.481 134.069 200.873 133.712L206.941 128.124L210.229 125.097L216.407 119.4L219.736 116.338L224.939 111.547L228.241 108.506L232.957 104.161C233.444 103.714 233.692 103.069 233.63 102.403C233.568 101.737 233.204 101.154 232.628 100.811L221.212 93.7952C220.972 93.6441 220.677 93.5412 220.374 93.5L212.981 92.6557L211.712 92.0516L204.01 88.3585L203.673 88.2006C203.385 88.0633 203.076 87.9878 202.76 87.9878L202.74 87.981Z" fill="#0E1329"/>
<path d="M227.534 107.744L224.232 110.785C210.881 101.847 204.765 91.4818 203.557 89.2715L211.265 92.9646C212.371 94.3855 213.723 95.9849 215.336 97.6667C218.205 100.673 222.242 104.298 227.541 107.737L227.534 107.744Z" fill="#FBCCCC"/>
<path d="M219.03 115.583L215.7 118.645C209.145 114.601 204.127 110.126 200.406 106.096L200.887 100.001C201.601 100.886 202.397 101.82 203.276 102.788C206.708 106.563 211.884 111.327 219.03 115.59V115.583Z" fill="#FBCCCC"/>
<path d="M209.522 124.342L206.234 127.369C203.632 125.619 201.277 123.8 199.156 121.967L199.582 116.482C202.341 119.098 205.636 121.796 209.515 124.342H209.522Z" fill="#FBCCCC"/>
<path d="M229.559 104.298C225.982 104.298 220.648 102.877 215.301 100.502C211.052 98.6138 207.263 96.3417 204.64 94.1107C201.826 91.715 200.693 89.6557 201.352 88.1661C201.86 87.0266 203.288 86.45 205.595 86.45C209.171 86.45 214.505 87.8709 219.852 90.246C224.101 92.1337 227.89 94.4059 230.513 96.6368C233.327 99.0325 234.46 101.092 233.801 102.581C233.293 103.721 231.865 104.298 229.559 104.298Z" fill="#F24D4D"/>
<path d="M205.595 86.965C208.972 86.965 214.168 88.283 219.646 90.713C228.35 94.5777 234.473 99.8015 233.327 102.369C232.902 103.323 231.542 103.776 229.552 103.776C226.174 103.776 220.978 102.458 215.5 100.028C206.796 96.1634 200.673 90.9395 201.819 88.3722C202.245 87.418 203.604 86.965 205.595 86.965ZM205.595 85.9353C203.062 85.9353 201.476 86.6149 200.879 87.9535C199.245 91.6328 206.789 97.2823 215.088 100.968C220.497 103.371 225.907 104.806 229.559 104.806C232.091 104.806 233.677 104.126 234.274 102.788C235.908 99.1082 228.364 93.4588 220.065 89.7725C214.656 87.37 209.247 85.9353 205.602 85.9353H205.595Z" fill="#0E1329"/>
<path d="M218.042 119.29C217.115 118.892 216.154 118.555 215.255 118.095C214.527 117.725 213.457 117.313 213.429 116.201C213.409 115.501 213.621 114.739 214.013 114.121C214.754 112.947 216.189 113.517 217.012 113.819C218.035 114.189 219.243 114.67 220.218 115.109C221.007 115.466 222.607 116.338 222.346 117.464C221.687 120.285 219.442 119.894 218.035 119.29H218.042Z" fill="#FCC48E" stroke="#09091A" stroke-width="1.02967" stroke-linecap="round" stroke-linejoin="round"/>
<path d="M220.294 114.704C219.477 114.299 218.619 113.963 217.836 113.496C217.205 113.119 216.25 112.707 216.353 111.554C216.429 110.695 216.717 109.906 217.548 109.529C217.987 109.329 218.481 109.268 218.962 109.261C220.369 109.24 221.584 109.7 222.813 110.332C223.506 110.689 224.9 111.581 224.522 112.755C223.582 115.7 221.529 115.315 220.294 114.704Z" fill="#FCC48E" stroke="#09091A" stroke-width="1.02967" stroke-linecap="round" stroke-linejoin="round"/>
<path d="M210.498 127.054C209.839 126.683 209.015 126.491 208.672 125.777C208.445 125.303 208.342 124.768 208.438 124.26C208.534 123.752 208.85 123.292 209.31 123.058C209.681 122.873 210.12 122.839 210.539 122.894C211.349 123.003 211.919 123.319 212.605 123.724C213.031 123.978 214.445 124.987 214.074 125.88C213.161 128.097 211.26 127.479 210.491 127.054H210.498Z" fill="#FCC48E" stroke="#09091A" stroke-width="1.02967" stroke-linecap="round" stroke-linejoin="round"/>
<path d="M214.959 123.717C214.129 123.408 213.278 123.161 212.468 122.791C211.822 122.489 210.662 121.871 210.621 120.814C210.594 120.148 210.827 118.164 213.065 118.377C214.575 118.521 215.467 119.029 216.833 119.571C217.541 119.853 218.975 120.56 218.756 121.651C218.206 124.383 216.209 124.184 214.953 123.717H214.959Z" fill="#FCC48E" stroke="#09091A" stroke-width="1.02967" stroke-linecap="round" stroke-linejoin="round"/>
<path d="M204.924 105.053C204.869 106.233 204.766 107.428 204.402 108.554C204.141 109.364 203.324 111.471 202.803 112.13C202.281 112.789 199.844 116.414 199.116 116.743C197.332 117.56 192.341 121.974 191.881 120.065C190.611 114.821 191.016 111.691 191.298 110.235C191.366 109.892 192.987 108.801 193.165 108.506C194.737 105.89 196.481 106.494 198.911 104.655" fill="#FCC48E"/>
<path d="M192.656 108.588C199.383 103.735 202.706 102.438 205.465 102.087C206.886 101.909 214.142 105.08 214.334 105.815C214.616 106.872 213.929 107.991 212.996 108.568C212.062 109.144 211.177 109.247 210.106 109.034C207.092 108.444 204.93 108.101 203.385 107.613" fill="#FCC48E"/>
<path d="M192.656 108.588C199.383 103.735 202.706 102.438 205.465 102.087C206.886 101.909 214.142 105.08 214.334 105.815C214.616 106.872 213.929 107.991 212.996 108.568C212.062 109.144 211.177 109.247 210.106 109.034C207.092 108.444 204.93 108.101 203.385 107.613" stroke="#09091A" stroke-width="1.02967" stroke-linecap="round" stroke-linejoin="round"/>
<path d="M204.538 108.307C203.062 113.16 199.115 116.743 199.115 116.743" stroke="#09091A" stroke-width="1.02967" stroke-linecap="round" stroke-linejoin="round"/>
<path d="M61.2425 55.0796L58.8125 54.1048C59.5607 52.2239 60.714 50.2126 62.0594 48.421L64.1531 49.993C62.9449 51.5993 61.9152 53.4046 61.2494 55.0727L61.2425 55.0796Z" fill="#00DDDD"/>
<path d="M179.408 33.2506C178.303 31.7817 177.171 30.6422 176.072 29.5438L177.926 27.6904C179.093 28.8505 180.294 30.0587 181.509 31.6787L179.415 33.2506H179.408Z" fill="#00DDDD"/>
<path d="M31.6634 58.45L29.4805 56.9947C30.3248 55.7316 31.5398 54.5098 32.7205 53.3359L34.5739 55.1893C33.4893 56.2739 32.3635 57.3997 31.6634 58.45Z" fill="#FFCA00"/>
<path d="M10.5696 36.8955L8.38672 35.4403C9.23105 34.1772 10.4461 32.9622 11.6267 31.7815L13.4802 33.6349C12.3956 34.7263 11.2698 35.8453 10.5696 36.8955Z" fill="#FFCA00"/>
<path d="M22.0193 93.9668C21.8408 93.7884 21.374 93.4177 20.9278 93.0607C19.0813 91.5917 17.7427 90.466 17.3789 89.3745L19.8638 88.5439V88.5233C20.0904 89.045 21.8202 90.4179 22.5547 91.0082C23.1313 91.4682 23.5844 91.832 23.8658 92.1134L22.0124 93.9668H22.0193Z" fill="#FFCA00"/>
<path d="M196.362 72.3643L193.795 71.8495C194.166 69.996 195.188 68.225 196.843 66.5707L198.696 68.4241C197.399 69.7215 196.637 71.012 196.362 72.3712V72.3643Z" fill="#FF2992"/>
<path d="M221.542 75.6866C221.35 75.3091 221.158 74.9041 220.965 74.4854C220.375 73.236 219.771 71.9455 218.975 70.8884L221.075 69.3164C222.029 70.5863 222.723 72.0622 223.34 73.3664C223.526 73.7646 223.711 74.149 223.89 74.5128L221.542 75.6866Z" fill="#FF2992"/>
<path d="M50.4726 41.1997L48.6191 39.3463C50.0195 37.9459 51.1109 36.525 52.2642 34.6029L54.5089 35.9483C53.2527 38.042 52.0102 39.662 50.4657 41.1997H50.4726Z" fill="#FF80CB"/>
<path d="M229.347 51.6061C229.072 51.0501 228.839 50.5078 228.626 49.9792C228.221 49.0045 227.837 48.0846 227.164 47.1854L229.265 45.6134C230.13 46.7666 230.596 47.8855 231.049 48.9633C231.262 49.4712 231.461 49.9517 231.695 50.4254L229.354 51.5992L229.347 51.6061Z" fill="#FF80CB"/>
<path d="M189.113 14.0437L186.766 12.8699C187.177 12.0461 187.685 11.2361 188.173 10.4536C188.647 9.69163 189.1 8.97086 189.457 8.25696L191.804 9.43078C191.392 10.2545 190.884 11.0645 190.397 11.8471C189.916 12.609 189.47 13.3298 189.113 14.0437Z" fill="#FF9D0D"/>
<path d="M157.744 91.42L155.279 90.5208C155.369 90.2874 155.506 89.7108 155.643 89.1548C156.206 86.8552 156.666 85.1665 157.503 84.3771L159.302 86.2854L159.316 86.2717C158.938 86.7041 158.416 88.8527 158.19 89.7725C158.018 90.4865 157.881 91.0493 157.744 91.42Z" fill="#FFCA00"/>
<path d="M9.6148 72.5633C10.3351 72.5633 10.919 71.9794 10.919 71.2591C10.919 70.5388 10.3351 69.9548 9.6148 69.9548C8.89448 69.9548 8.31055 70.5388 8.31055 71.2591C8.31055 71.9794 8.89448 72.5633 9.6148 72.5633Z" fill="#FFCA00"/>
<path d="M89.5386 3.54112C90.2589 3.54112 90.8429 2.95718 90.8429 2.23686C90.8429 1.51655 90.2589 0.932617 89.5386 0.932617C88.8183 0.932617 88.2344 1.51655 88.2344 2.23686C88.2344 2.95718 88.8183 3.54112 89.5386 3.54112Z" fill="#FFCA00"/>
<path d="M33.5777 25.885C34.298 25.885 34.8819 25.3011 34.8819 24.5807C34.8819 23.8604 34.298 23.2765 33.5777 23.2765C32.8574 23.2765 32.2734 23.8604 32.2734 24.5807C32.2734 25.3011 32.8574 25.885 33.5777 25.885Z" fill="#FFB3E0"/>
<path d="M183.877 101.47C184.597 101.47 185.181 100.886 185.181 100.165C185.181 99.4451 184.597 98.8612 183.877 98.8612C183.156 98.8612 182.572 99.4451 182.572 100.165C182.572 100.886 183.156 101.47 183.877 101.47Z" fill="#FF2992"/>
<path d="M143.939 37.8291C144.659 37.8291 145.243 37.2451 145.243 36.5248C145.243 35.8045 144.659 35.2206 143.939 35.2206C143.219 35.2206 142.635 35.8045 142.635 36.5248C142.635 37.2451 143.219 37.8291 143.939 37.8291Z" fill="#FFCA00"/>
<path d="M155.527 17.0436C156.247 17.0436 156.831 16.4596 156.831 15.7393C156.831 15.019 156.247 14.4351 155.527 14.4351C154.807 14.4351 154.223 15.019 154.223 15.7393C154.223 16.4596 154.807 17.0436 155.527 17.0436Z" fill="#F78C2A"/>
<path d="M46.525 68.9939C47.2453 68.9939 47.8292 68.4099 47.8292 67.6896C47.8292 66.9693 47.2453 66.3854 46.525 66.3854C45.8046 66.3854 45.2207 66.9693 45.2207 67.6896C45.2207 68.4099 45.8046 68.9939 46.525 68.9939Z" fill="#F78C2A"/>
<defs>
<clipPath id="clip0_34065_11044">
<rect width="38.84" height="46.0831" fill="white" transform="translate(82.2539 6.10156)"/>
</clipPath>
</defs>
</svg>
