<svg width="14" height="14" viewBox="0 0 14 14" fill="none" xmlns="http://www.w3.org/2000/svg">
<path fill-rule="evenodd" clip-rule="evenodd" d="M13.3001 2.09998C13.6867 1.71338 13.6867 1.08658 13.3001 0.699983C12.9135 0.313384 12.2867 0.313384 11.9001 0.699984L7.00011 5.59998L2.10011 0.699983C1.71351 0.313384 1.08671 0.313384 0.700106 0.699984C0.313506 1.08658 0.313506 1.71338 0.700106 2.09998L5.60011 6.99998L2.80011 9.79998L0.700105 11.9C0.313506 12.2866 0.313506 12.9134 0.700106 13.3C1.0867 13.6866 1.71351 13.6866 2.10011 13.3L7.00011 8.39998L11.9001 13.3C12.2867 13.6866 12.9135 13.6866 13.3001 13.3C13.6867 12.9134 13.6867 12.2866 13.3001 11.9L8.40011 6.99998L13.3001 2.09998Z" fill="#565A69"/>
</svg>
